# xmcd
#
# Track frame offsets: 
#        150
#        25242
#        55532
#        90692
#        110287
#        134426
#        170856
#        188565
#        209210
#        243773
#        265060
#        280572
#        295139
#
# Disc length: 4423 seconds
#
# Revision: 1
# Processed by: cddbd v1.5.2PL0 Copyright (c) Steve Scherf et al.
# Submitted via: ExactAudioCopy v1.0b3
#
DISCID=b811450d
DTITLE=Mulligan, Gerry - West Coast Sax
DYEAR=1998
DGENRE=Jazz
TTITLE0=Out Of Nowhere
TTITLE1=Walkin' Shoes
TTITLE2=I Never Knew
TTITLE3=Moonlight In Vermont
TTITLE4=My Funny Valentine
TTITLE5=Rose Room
TTITLE6=Frenesi
TTITLE7=Yardbird Suite
TTITLE8=Bernie's Tune
TTITLE9=C C Rider
TTITLE10=Trouble In Mind
TTITLE11=Goin' To Kansas City
TTITLE12=Fine and Mellow
EXTD=YEAR: 1998
EXTT0=
EXTT1=
EXTT2=
EXTT3=
EXTT4=
EXTT5=
EXTT6=
EXTT7=
EXTT8=
EXTT9=
EXTT10=
EXTT11=
EXTT12=
PLAYORDER=
